<svg width="50" height="50" viewBox="0 0 50 50" fill="none" xmlns="http://www.w3.org/2000/svg">
<path fill-rule="evenodd" clip-rule="evenodd" d="M8.33334 25C8.33364 21.7926 9.25941 18.6534 10.9996 15.9592C12.7397 13.2649 15.2203 11.1299 18.1438 9.81046C21.0672 8.49103 24.3093 8.04315 27.4809 8.52059C30.6526 8.99802 33.6191 10.3805 36.0246 12.5021C38.43 14.6237 40.1722 17.3943 41.042 20.4815C41.9119 23.5687 41.8725 26.8413 40.9285 29.9066C39.9846 32.972 38.1762 35.6998 35.7204 37.7629C33.2645 39.826 30.2656 41.1366 27.0833 41.5375V29.1667H31.25C31.8025 29.1667 32.3324 28.9472 32.7231 28.5565C33.1138 28.1658 33.3333 27.6359 33.3333 27.0834C33.3333 26.5308 33.1138 26.0009 32.7231 25.6102C32.3324 25.2195 31.8025 25 31.25 25H27.0833V20.8334C27.0833 20.2808 27.3028 19.7509 27.6935 19.3602C28.0842 18.9695 28.6141 18.75 29.1667 18.75H30.2083C30.7609 18.75 31.2908 18.5305 31.6815 18.1398C32.0722 17.7491 32.2917 17.2192 32.2917 16.6667C32.2917 16.1142 32.0722 15.5842 31.6815 15.1935C31.2908 14.8028 30.7609 14.5834 30.2083 14.5834H29.1667C27.5091 14.5834 25.9194 15.2418 24.7473 16.4139C23.5751 17.586 22.9167 19.1757 22.9167 20.8334V25H18.75C18.1975 25 17.6676 25.2195 17.2769 25.6102C16.8862 26.0009 16.6667 26.5308 16.6667 27.0834C16.6667 27.6359 16.8862 28.1658 17.2769 28.5565C17.6676 28.9472 18.1975 29.1667 18.75 29.1667H22.9167V41.5375C18.8888 41.0301 15.1846 39.0699 12.4995 36.025C9.81437 32.98 8.33296 29.0597 8.33334 25ZM25 45.8334C36.5063 45.8334 45.8333 36.5063 45.8333 25C45.8333 13.4938 36.5063 4.16669 25 4.16669C13.4938 4.16669 4.16667 13.4938 4.16667 25C4.16667 36.5063 13.4938 45.8334 25 45.8334Z" fill="#F4E3C1"/>
</svg>
