<svg width="90" height="90" viewBox="0 0 90 90" fill="none" xmlns="http://www.w3.org/2000/svg">
<path d="M38.655 65.0476H41.8275V52.3576C43.15 52.3576 44.2738 51.895 45.1988 50.97C46.1238 50.045 46.5863 48.92 46.5863 47.595V38.0775H43.4137V47.595H41.8275V38.0775H38.655V47.595H37.0688V38.0775H33.8962V47.595C33.8962 48.92 34.3588 50.045 35.2838 50.97C36.2088 51.895 37.3325 52.3576 38.655 52.3576V65.0476ZM51.345 65.0476H54.5212V38.0775C52.7937 38.0775 51.3037 38.6988 50.0513 39.9413C48.8013 41.1838 48.1763 42.6775 48.1763 44.4225V53.9438H51.345V65.0476ZM18.75 75V35.625L45 15.8625L71.25 35.625V75H18.75ZM22.5 71.25H67.5V37.5L45 20.625L22.5 37.5V71.25Z" fill="#333333"/>
</svg>
