<svg width="90" height="90" viewBox="0 0 90 90" fill="none" xmlns="http://www.w3.org/2000/svg">
<path d="M47.0909 3.60266C47.0909 3.60266 44.8128 4.76528 42.537 6.47739C41.3991 7.33344 40.2474 8.32661 39.3369 9.47041C38.4263 10.614 37.6842 11.9721 37.797 13.5601C37.9225 15.325 39.1189 16.6393 40.3951 17.4273C41.6711 18.2152 43.12 18.6919 44.4846 19.1621C45.8494 19.6323 47.1301 20.096 47.9426 20.5979C48.7552 21.0996 49.0064 21.4246 49.047 21.9976C49.0518 22.0627 48.9735 22.41 48.5877 22.8947C48.2019 23.3793 47.5812 23.937 46.9318 24.4257C45.6332 25.4025 44.2784 26.1027 44.2784 26.1027L45.7216 28.918C45.7216 28.918 47.273 28.128 48.834 26.9538C49.6144 26.3667 50.4118 25.6834 51.063 24.8655C51.7143 24.0473 52.2923 23.0304 52.203 21.773C52.0775 20.0081 50.8811 18.6938 49.6049 17.9058C48.3288 17.1178 46.88 16.6412 45.5154 16.171C44.1506 15.7008 42.8699 15.2371 42.0574 14.7352C41.2448 14.2334 40.9936 13.9085 40.953 13.3355C40.9249 12.9396 41.1669 12.2513 41.8119 11.4411C42.457 10.6307 43.4322 9.76256 44.4391 9.00512C46.4525 7.49041 48.5341 6.41797 48.5341 6.41797L47.0909 3.60266ZM24.5909 12.0402C24.5909 12.0402 22.3128 13.2028 20.0369 14.9149C18.8991 15.7709 17.7474 16.7641 16.8369 17.9079C15.9263 19.0515 15.1842 20.4096 15.297 21.9976C15.4225 23.7625 16.6189 25.0768 17.8951 25.8648C19.1711 26.6527 20.62 27.1294 21.9846 27.5996C23.3494 28.0698 24.6301 28.5335 25.4426 29.0354C26.2552 29.5371 26.5064 29.8621 26.547 30.4351C26.5518 30.5002 26.4735 30.8475 26.0877 31.3322C25.7019 31.8168 25.0812 32.3745 24.4318 32.8632C23.1332 33.84 21.7784 34.5402 21.7784 34.5402L23.2216 37.3555C23.2216 37.3555 24.773 36.5655 26.334 35.3913C27.1144 34.8042 27.9118 34.1209 28.563 33.3028C29.2143 32.4848 29.7923 31.4677 29.703 30.2105C29.5775 28.4457 28.3811 27.1313 27.1049 26.3433C25.8288 25.5553 24.38 25.0787 23.0154 24.6085C21.6506 24.1383 20.3699 23.6746 19.5574 23.1727C18.7448 22.6709 18.4936 22.346 18.453 21.773C18.4249 21.3771 18.6669 20.6888 19.3119 19.8786C19.957 19.0682 20.9322 18.2001 21.9391 17.4426C23.9525 15.9279 26.0341 14.8555 26.0341 14.8555L24.5909 12.0402ZM69.5909 12.0402C69.5909 12.0402 67.3128 13.2028 65.037 14.9149C63.8991 15.7709 62.7474 16.7641 61.8369 17.9079C60.9263 19.0515 60.1842 20.4096 60.297 21.9976C60.4225 23.7625 61.6189 25.0768 62.8951 25.8648C64.1711 26.6527 65.62 27.1294 66.9846 27.5996C68.3494 28.0698 69.6301 28.5335 70.4426 29.0354C71.2552 29.5371 71.5064 29.8621 71.547 30.4351C71.5518 30.5002 71.4735 30.8475 71.0877 31.3322C70.7019 31.8168 70.0812 32.3745 69.4318 32.8632C68.1332 33.84 66.7784 34.5402 66.7784 34.5402L68.2216 37.3555C68.2216 37.3555 69.773 36.5655 71.334 35.3913C72.1144 34.8042 72.9118 34.1209 73.563 33.3028C74.2143 32.4848 74.7923 31.4677 74.703 30.2105C74.5775 28.4457 73.3811 27.1313 72.1049 26.3433C70.8288 25.5553 69.38 25.0787 68.0154 24.6085C66.6506 24.1383 65.3699 23.6746 64.5574 23.1727C63.7448 22.6709 63.4936 22.346 63.453 21.773C63.4249 21.3771 63.6669 20.6888 64.3119 19.8786C64.957 19.0682 65.9322 18.2001 66.9391 17.4426C68.9525 15.9279 71.0341 14.8555 71.0341 14.8555L69.5909 12.0402ZM45 32.9592C42.7148 32.9592 41.1694 33.9988 39.9881 35.7706C39.4991 36.5042 39.1045 37.3702 38.8078 38.3133C40.7976 38.0308 42.863 37.8818 45 37.8818C47.137 37.8818 49.2022 38.0308 51.1922 38.3133C50.8955 37.3702 50.5009 36.5042 50.0119 35.7706C48.8306 33.9988 47.2852 32.9592 45 32.9592ZM45 41.0451C24.007 41.0451 10.942 56.1692 10.1004 71.6318H79.8996C79.0578 56.1692 65.9929 41.0449 45 41.0449V41.0451ZM3.93099 72.4465L1.694 74.6835C4.87916 77.8688 8.4375 77.9592 11.25 77.9592H78.75C81.5625 77.9592 85.1207 77.8688 88.306 74.6835L86.069 72.4465C83.6292 74.8862 81.5625 74.7958 78.75 74.7958H11.25C8.4375 74.7958 6.37066 74.8862 3.93099 72.4465ZM19.8306 81.1233L23.3466 86.3974H66.6534L70.1694 81.1233H19.8306Z" fill="#333333"/>
</svg>
