<svg width="50" height="50" viewBox="0 0 50 50" fill="none" xmlns="http://www.w3.org/2000/svg">
<path d="M25.0022 18.4821C23.3446 18.4821 21.7549 19.1312 20.5828 20.2865C19.4107 21.4419 18.7522 23.0089 18.7522 24.6428C18.7522 26.2768 19.4107 27.8438 20.5828 28.9991C21.7549 30.1545 23.3446 30.8035 25.0022 30.8035C26.6598 30.8035 28.2495 30.1545 29.4216 28.9991C30.5937 27.8438 31.2522 26.2768 31.2522 24.6428C31.2522 23.0089 30.5937 21.4419 29.4216 20.2865C28.2495 19.1312 26.6598 18.4821 25.0022 18.4821ZM25.0022 14.375C27.7649 14.375 30.4144 15.4568 32.3679 17.3824C34.3214 19.308 35.4189 21.9196 35.4189 24.6428C35.4189 27.366 34.3214 29.9777 32.3679 31.9033C30.4144 33.8289 27.7649 34.9107 25.0022 34.9107C22.2395 34.9107 19.59 33.8289 17.6365 31.9033C15.683 29.9777 14.5855 27.366 14.5855 24.6428C14.5855 21.9196 15.683 19.308 17.6365 17.3824C19.59 15.4568 22.2395 14.375 25.0022 14.375ZM38.5439 13.8616C38.5439 14.5424 38.2695 15.1953 37.7811 15.6767C37.2927 16.1581 36.6304 16.4285 35.9397 16.4285C35.249 16.4285 34.5866 16.1581 34.0983 15.6767C33.6099 15.1953 33.3355 14.5424 33.3355 13.8616C33.3355 13.1808 33.6099 12.5279 34.0983 12.0465C34.5866 11.5651 35.249 11.2946 35.9397 11.2946C36.6304 11.2946 37.2927 11.5651 37.7811 12.0465C38.2695 12.5279 38.5439 13.1808 38.5439 13.8616ZM25.0022 8.21426C19.848 8.21426 19.0064 8.22863 16.6084 8.33337C14.9751 8.40935 13.8793 8.62497 12.8626 9.01515C12.0123 9.32395 11.2433 9.81735 10.6126 10.4588C9.9611 11.0803 9.45982 11.8383 9.14594 12.6767C8.75011 13.6829 8.53136 14.761 8.45636 16.369C8.34803 18.6361 8.33345 19.4288 8.33345 24.6428C8.33345 29.7254 8.34803 30.553 8.45428 32.9167C8.53136 34.5246 8.75011 35.6068 9.14386 36.6069C9.49803 37.5002 9.9147 38.143 10.6064 38.8248C11.3084 39.5148 11.9605 39.9276 12.8564 40.2685C13.8855 40.6607 14.9814 40.8784 16.6064 40.9523C18.9064 41.0591 19.7105 41.0714 25.0001 41.0714C30.1564 41.0714 30.9959 41.057 33.3939 40.9523C35.023 40.8763 36.1189 40.6607 37.1376 40.2726C37.988 39.9638 38.7569 39.4704 39.3876 38.8289C40.0897 38.1389 40.5084 37.4961 40.8543 36.611C41.2501 35.6007 41.4709 34.5205 41.5459 32.9146C41.6543 30.6495 41.6668 29.8548 41.6668 24.6428C41.6668 19.5623 41.6522 18.7327 41.5459 16.369C41.4689 14.7631 41.248 13.6788 40.8543 12.6767C40.541 11.8385 40.0405 11.0805 39.3897 10.4588C38.7592 9.81661 37.9902 9.32249 37.1397 9.0131C36.1189 8.62292 35.023 8.4073 33.3939 8.33337C31.0959 8.22658 30.2918 8.21426 25.0001 8.21426M25.0001 4.10712C30.6605 4.10712 31.3668 4.12765 33.5897 4.23033C35.8064 4.33301 37.3189 4.67596 38.6459 5.18524C40.0209 5.70685 41.1793 6.41328 42.3376 7.55301C43.3974 8.57925 44.2172 9.82112 44.7397 11.1919C45.2543 12.5001 45.6043 13.991 45.7084 16.178C45.8064 18.3671 45.8334 19.0633 45.8334 24.6428C45.8334 30.2224 45.8126 30.9185 45.7084 33.1077C45.6043 35.2968 45.2543 36.7835 44.7397 38.0937C44.2172 39.4645 43.3974 40.7064 42.3376 41.7327C41.2965 42.7773 40.0366 43.5854 38.6459 44.1004C37.3189 44.6077 35.8064 44.9527 33.5897 45.0553C31.3668 45.1519 30.6605 45.1785 25.0001 45.1785C19.3397 45.1785 18.6334 45.158 16.4105 45.0553C14.1939 44.9527 12.6834 44.6077 11.3543 44.1004C9.9636 43.5854 8.70372 42.7773 7.66261 41.7327C6.60283 40.7064 5.78306 39.4645 5.26053 38.0937C4.74386 36.7856 4.39595 35.2947 4.29178 33.1077C4.19178 30.9185 4.16678 30.2224 4.16678 24.6428C4.16678 19.0633 4.18761 18.3671 4.29178 16.178C4.39595 13.9889 4.74386 12.5021 5.26053 11.1919C5.78306 9.82112 6.60283 8.57925 7.66261 7.55301C8.70372 6.50837 9.9636 5.70031 11.3543 5.18524C12.6814 4.67596 14.1918 4.33301 16.4105 4.23033C18.6355 4.13381 19.3418 4.10712 25.0022 4.10712" fill="#F4E3C1"/>
</svg>
